<svg version="1.1" id="Layer_1"
	xmlns="http://www.w3.org/2000/svg"
	xmlns:xlink="http://www.w3.org/1999/xlink" x="0px" y="0px" width="100%" viewBox="0 0 572 197" enable-background="new 0 0 572 197" xml:space="preserve">
	<path fill="none" opacity="1.000000" stroke="#000000" stroke-linecap="round" stroke-linejoin="round" stroke-width="13.000000" d="
M508.500000,50.500000 
	C502.669678,52.150528 497.799042,49.897041 492.414978,47.709213 
	C479.903870,42.625271 466.853424,41.399719 454.015259,47.034737 
	C441.637878,52.467476 438.181427,62.690536 440.587250,74.982925 
	C442.294830,83.707596 449.566803,86.805458 456.990295,89.526512 
	C466.291290,92.935753 476.132538,94.387146 485.486023,97.541412 
	C492.744049,99.989044 500.083710,102.614105 503.971741,110.014847 
	C509.349060,120.250397 506.455902,134.535095 494.010284,140.023285 
	C476.712585,147.651108 460.034302,144.328217 443.507080,137.482925 
	C442.618988,137.115112 441.678619,136.649536 441.026306,135.974594 
	C437.871063,132.709854 434.256622,133.203705 430.500000,134.500000 
"/>
	<path fill="none" opacity="1.000000" stroke="#000000" stroke-linecap="round" stroke-linejoin="round" stroke-width="15.000000" d="
M358.500000,93.500000 
	C365.831879,93.269791 373.172516,93.902000 380.508728,93.077698 
	C382.568726,92.846245 383.795776,92.207825 385.084320,90.566193 
	C386.737244,88.460434 388.894409,86.699455 391.018860,85.023926 
	C398.889252,78.816650 400.154633,67.814911 397.376831,59.038986 
	C394.448212,49.786591 385.800598,44.025311 376.500000,44.005962 
	C364.666687,43.981342 352.833344,44.000000 341.000000,44.000000 
	C340.333344,44.000000 339.664093,43.961647 339.000397,44.006004 
	C333.137695,44.397869 332.007172,45.588085 332.004272,51.500004 
	C331.993500,73.333336 332.000000,95.166664 332.000000,117.000000 
"/>
	<path fill="none" opacity="1.000000" stroke="#000000" stroke-linecap="round" stroke-linejoin="round" stroke-width="12.000000" d="
M255.500000,39.500000 
	C247.771561,42.040867 247.098190,49.650330 244.643967,55.559788 
	C235.778076,76.907829 227.493057,98.497261 219.005035,120.001991 
	C216.971039,125.155235 214.742859,130.251450 213.065094,135.520721 
	C210.969330,142.102829 206.960358,146.623795 200.500000,149.000000 
"/>
	<path fill="none" opacity="1.000000" stroke="#000000" stroke-linecap="round" stroke-linejoin="round" stroke-width="13.000000" d="
M383.500000,92.999992 
	C386.500000,95.166664 389.365356,97.557274 392.525665,99.457298 
	C401.406647,104.796654 404.308746,114.945374 402.517365,125.003098 
	C400.874969,134.224518 390.989502,141.845810 382.012421,143.089645 
	C369.842773,144.775833 357.664795,143.590027 345.499207,143.974915 
	C340.670685,144.127670 335.833344,144.000000 331.000000,144.000000 
"/>
	<path fill="none" opacity="1.000000" stroke="#000000" stroke-linecap="round" stroke-linejoin="round" stroke-width="15.000000" d="
M73.000000,45.000000 
	C73.000000,77.666664 73.000000,110.333336 73.000000,143.000000 
"/>
	<path fill="none" opacity="1.000000" stroke="#000000" stroke-linecap="round" stroke-linejoin="round" stroke-width="15.000000" d="
M120.000000,45.000000 
	C120.000000,68.666664 120.000000,92.333336 120.000000,116.000000 
"/>
	<path fill="none" opacity="1.000000" stroke="#000000" stroke-linecap="round" stroke-linejoin="round" stroke-width="14.000000" d="
M183.500000,143.500000 
	C162.166672,143.500000 140.833328,143.500000 119.500000,143.500000 
"/>
	<path fill="none" opacity="1.000000" stroke="#000000" stroke-linecap="round" stroke-linejoin="round" stroke-width="12.000000" d="
M263.500000,54.500000 
	C263.764252,56.826363 263.990143,59.295525 263.821289,61.486225 
	C263.335358,67.790398 265.175171,73.390923 267.491791,79.003395 
	C270.857178,87.156822 274.954681,95.112968 277.314606,103.551849 
	C280.818665,116.082199 287.551422,127.237419 291.403107,139.530350 
	C293.217041,145.319687 298.442474,146.285904 302.500000,149.000000 
"/>
	<path fill="none" opacity="1.000000" stroke="#000000" stroke-linecap="round" stroke-linejoin="round" stroke-width="12.000000" d="
M277.500000,110.500000 
	C270.232544,112.282623 262.833710,111.460075 255.500534,111.414734 
	C250.315186,111.382668 245.424973,111.570732 241.500000,115.500000 
"/>
	<path fill="none" opacity="1.000000" stroke="#000000" stroke-linecap="round" stroke-linejoin="round" stroke-width="2.000000" d="
M500.500000,52.000000 
	C502.143829,54.603416 501.621155,57.716591 502.500000,60.500000 
"/>
	<path fill="none" opacity="1.000000" stroke="#000000" stroke-linecap="round" stroke-linejoin="round" stroke-width="3.000000" d="
M435.000031,124.499992 
	C435.500031,127.166664 436.000031,129.833328 436.500031,132.500000 
"/>
</svg>