<svg version="1.1" id="Layer_1" xmlns="http://www.w3.org/2000/svg" xmlns:xlink="http://www.w3.org/1999/xlink" x="0px" y="0px"
	 width="100%" viewBox="0 0 1280 444" enable-background="new 0 0 1280 444" xml:space="preserve">
<path fill="#FFFFFF" opacity="1.000000" stroke="none" 
	d="
M874.000000,445.000000 
	C582.666687,445.000000 291.833405,445.000000 1.000078,445.000000 
	C1.000052,297.000061 1.000052,149.000107 1.000026,1.000118 
	C427.666534,1.000079 854.333069,1.000079 1280.999756,1.000039 
	C1280.999756,148.999878 1280.999756,296.999756 1280.999878,444.999817 
	C1145.500000,445.000000 1010.000000,445.000000 874.000000,445.000000 
M305.654266,201.684097 
	C305.613403,237.511810 305.570221,273.339508 305.549988,309.167236 
	C305.549622,309.809753 305.823975,310.452423 305.779633,311.676331 
	C305.730194,312.080475 305.680756,312.484589 304.786194,313.196747 
	C300.014374,313.196747 295.242523,313.196747 290.372528,313.196747 
	C290.372528,316.097015 290.372528,318.010437 290.372528,320.148438 
	C291.967407,320.266479 293.273438,320.447357 294.579529,320.447632 
	C342.721069,320.458862 390.862701,320.413696 439.003967,320.524445 
	C442.900513,320.533386 444.161072,319.446655 444.137207,315.456421 
	C443.981079,289.304413 444.057526,263.151031 444.074432,236.998077 
	C444.075470,235.416946 444.217346,233.835907 444.348145,231.126785 
	C448.764740,235.265686 452.408875,238.680695 456.239502,242.270477 
	C457.825684,240.526062 459.005524,239.228516 460.225891,237.886398 
	C459.404724,236.845459 458.954468,236.143860 458.379974,235.565674 
	C446.178070,223.284637 434.000458,210.979034 421.740112,198.756516 
	C402.995667,180.069885 384.251740,161.381744 365.350769,142.854248 
	C362.455322,140.015991 362.454773,138.242966 365.428497,135.690567 
	C368.143555,133.360138 370.479614,130.588120 373.217743,127.768738 
	C371.342010,126.122215 370.017426,124.959503 367.533966,122.779533 
	C364.288483,126.987640 361.251617,130.925293 358.214722,134.862961 
	C357.404297,135.042755 356.593872,135.222534 355.783447,135.402328 
	C352.857605,131.199066 349.931763,126.995796 346.815430,122.518883 
	C344.271240,125.265091 343.085358,126.545105 341.748962,127.987602 
	C345.490448,131.940521 348.881104,135.522781 351.416290,138.201218 
	C338.077148,151.731888 325.093872,164.901596 311.978882,178.204895 
	C311.978882,166.515411 311.901703,154.728714 312.030273,142.944244 
	C312.064697,139.791779 311.108154,138.537384 307.383148,139.280869 
	C306.937378,139.599289 306.491608,139.917709 305.613617,140.875687 
	C305.573975,154.350311 305.419739,167.826218 305.570465,181.298706 
	C305.611237,184.941696 304.445160,187.498871 301.880005,190.031143 
	C287.079926,204.641586 272.435303,219.409439 257.731750,234.117676 
	C253.779663,238.070999 253.822220,238.490341 258.973938,241.896927 
	C262.651917,238.403183 266.401001,234.841858 271.043243,230.432144 
	C271.043243,236.082123 271.030487,240.361465 271.045319,244.640717 
	C271.130096,269.091919 271.221466,293.543091 271.194611,318.796661 
	C272.923096,319.174988 274.794403,320.099091 276.319366,319.699921 
	C277.074310,319.502319 277.540222,316.869171 277.544983,315.336121 
	C277.621796,290.677765 277.580841,266.019135 277.621887,241.360626 
	C277.632141,235.205856 277.836884,229.051437 278.536774,222.597122 
	C286.387573,214.792755 294.197815,206.946548 302.147552,199.244293 
	C303.007782,198.410858 304.675812,198.411194 305.828461,198.746796 
	C305.878448,199.475967 305.928467,200.205139 305.654266,201.684097 
M558.238281,299.237579 
	C578.055298,310.087250 599.189880,312.834473 621.118164,308.488068 
	C638.333252,305.075897 653.150391,296.709412 665.703430,284.351196 
	C668.959961,281.145203 669.064697,278.640350 665.255554,275.870209 
	C662.029724,273.524231 659.064880,270.821228 655.961243,268.304932 
	C650.973816,264.261475 650.259949,264.392853 645.581421,268.847229 
	C624.864868,288.571350 595.968872,291.376312 572.856628,279.486389 
	C539.994507,262.580780 528.151123,224.487122 544.444702,191.013351 
	C557.206360,164.795670 587.083801,150.488541 615.436523,156.801529 
	C627.679443,159.527512 638.020142,165.532913 646.875610,174.178604 
	C649.693909,176.930145 651.834045,177.378967 654.864624,174.559113 
	C658.392029,171.276993 662.208069,168.277252 666.085815,165.407608 
	C669.596191,162.809845 669.250671,160.730530 666.285461,157.833649 
	C654.104980,145.933716 639.929016,137.979385 623.346924,133.697464 
	C566.628540,119.051331 509.405914,165.524643 512.357971,224.152115 
	C514.020325,257.165100 529.306213,281.968018 558.238281,299.237579 
M1015.899963,278.596924 
	C1013.701111,278.866608 1011.014771,278.416840 1009.382629,279.522827 
	C998.882446,286.637970 987.369202,289.578705 974.839050,288.634796 
	C960.115967,287.525726 947.914001,276.782654 946.326538,263.293243 
	C948.185852,263.293243 949.987244,263.294037 951.788635,263.293060 
	C972.781067,263.281677 993.774292,263.376587 1014.765503,263.211151 
	C1024.530396,263.134247 1028.167725,259.027985 1028.177979,249.239502 
	C1028.205811,222.475967 1006.832642,197.323624 974.134949,198.443558 
	C941.251648,199.569870 919.521912,224.026016 920.817017,257.087738 
	C921.724365,280.249542 932.864380,297.299316 954.526428,305.677521 
	C976.232605,314.072693 997.140381,311.545593 1015.235046,295.774658 
	C1023.943298,288.184753 1023.714050,287.796295 1015.899963,278.596924 
M780.357666,219.182236 
	C775.211060,207.984756 766.257935,201.399139 754.353577,199.671722 
	C734.506592,196.791794 715.631104,200.841110 697.694397,209.546799 
	C694.889771,210.908035 694.173889,213.002197 695.254456,216.146393 
	C700.447388,231.255386 700.298645,231.070557 715.201111,225.329407 
	C725.024780,221.544876 735.240051,219.110764 745.934326,219.922943 
	C756.059082,220.691895 761.412720,226.808685 760.604614,237.033020 
	C756.813232,237.691422 752.894104,238.271240 749.018250,239.062668 
	C733.049683,242.323349 716.948059,245.248596 702.903870,254.294037 
	C692.941284,260.710632 688.354187,269.944183 689.098572,281.764801 
	C689.821411,293.241943 695.134277,301.805481 705.901733,306.211243 
	C719.605408,311.818512 733.609070,311.303619 747.326355,306.335968 
	C752.796814,304.354858 757.768860,300.997437 762.976013,298.262268 
	C767.196960,310.037842 765.821167,308.854401 778.496277,308.893951 
	C778.995972,308.895508 779.495667,308.896515 779.995361,308.895142 
	C786.097839,308.878326 786.272461,308.564667 786.066650,302.268433 
	C785.370789,280.980011 784.973328,259.679016 783.993164,238.404434 
	C783.706543,232.183731 781.858398,226.034973 780.357666,219.182236 
M847.695740,298.889526 
	C848.724243,300.979004 849.414368,303.353699 850.871155,305.082153 
	C852.510437,307.027069 854.887390,309.708801 856.858215,309.639709 
	C858.895813,309.568237 861.553650,306.958160 862.686340,304.800415 
	C867.632996,295.377319 872.130188,285.718048 876.778809,276.138794 
	C888.181396,252.641312 899.591431,229.147369 910.964294,205.635498 
	C913.168640,201.078186 912.524902,200.019974 907.561401,199.931686 
	C902.897156,199.848724 898.208679,200.192291 893.571106,199.831238 
	C889.641724,199.525314 887.614868,200.913986 886.031921,204.527817 
	C879.622986,219.158737 872.920837,233.661377 866.308105,248.202805 
	C863.229980,254.971420 860.108826,261.720428 856.693359,269.162079 
	C854.776306,265.029297 853.226685,261.732056 851.712952,258.418427 
	C843.486938,240.411499 835.306580,222.383514 826.988770,204.419098 
	C826.216125,202.750275 824.657349,200.286377 823.352478,200.214722 
	C815.952209,199.808273 808.518066,200.017975 799.266113,200.017975 
	C815.719727,233.628998 831.531677,265.929321 847.695740,298.889526 
z"/>
<path fill="#141414" opacity="1.000000" stroke="none" 
	d="
M557.918823,299.057190 
	C529.306213,281.968018 514.020325,257.165100 512.357971,224.152115 
	C509.405914,165.524643 566.628540,119.051331 623.346924,133.697464 
	C639.929016,137.979385 654.104980,145.933716 666.285461,157.833649 
	C669.250671,160.730530 669.596191,162.809845 666.085815,165.407608 
	C662.208069,168.277252 658.392029,171.276993 654.864624,174.559113 
	C651.834045,177.378967 649.693909,176.930145 646.875610,174.178604 
	C638.020142,165.532913 627.679443,159.527512 615.436523,156.801529 
	C587.083801,150.488541 557.206360,164.795670 544.444702,191.013351 
	C528.151123,224.487122 539.994507,262.580780 572.856628,279.486389 
	C595.968872,291.376312 624.864868,288.571350 645.581421,268.847229 
	C650.259949,264.392853 650.973816,264.261475 655.961243,268.304932 
	C659.064880,270.821228 662.029724,273.524231 665.255554,275.870209 
	C669.064697,278.640350 668.959961,281.145203 665.703430,284.351196 
	C653.150391,296.709412 638.333252,305.075897 621.118164,308.488068 
	C599.189880,312.834473 578.055298,310.087250 557.918823,299.057190 
z"/>
<path fill="#141414" opacity="1.000000" stroke="none" 
	d="
M1016.140015,278.860413 
	C1023.714050,287.796295 1023.943298,288.184753 1015.235046,295.774658 
	C997.140381,311.545593 976.232605,314.072693 954.526428,305.677521 
	C932.864380,297.299316 921.724365,280.249542 920.817017,257.087738 
	C919.521912,224.026016 941.251648,199.569870 974.134949,198.443558 
	C1006.832642,197.323624 1028.205811,222.475967 1028.177979,249.239502 
	C1028.167725,259.027985 1024.530396,263.134247 1014.765503,263.211151 
	C993.774292,263.376587 972.781067,263.281677 951.788635,263.293060 
	C949.987244,263.294037 948.185852,263.293243 946.326538,263.293243 
	C947.914001,276.782654 960.115967,287.525726 974.839050,288.634796 
	C987.369202,289.578705 998.882446,286.637970 1009.382629,279.522827 
	C1011.014771,278.416840 1013.701111,278.866608 1016.140015,278.860413 
M972.843140,220.367798 
	C958.155090,221.275040 946.113464,233.028625 946.505188,244.378876 
	C965.233032,244.378876 983.960815,244.378876 1002.681030,244.378876 
	C1003.082520,231.462967 990.158203,220.807144 972.843140,220.367798 
z"/>
<path fill="#151515" opacity="1.000000" stroke="none" 
	d="
M780.541809,219.517731 
	C781.858398,226.034973 783.706543,232.183731 783.993164,238.404434 
	C784.973328,259.679016 785.370789,280.980011 786.066650,302.268433 
	C786.272461,308.564667 786.097839,308.878326 779.995361,308.895142 
	C779.495667,308.896515 778.995972,308.895508 778.496277,308.893951 
	C765.821167,308.854401 767.196960,310.037842 762.976013,298.262268 
	C757.768860,300.997437 752.796814,304.354858 747.326355,306.335968 
	C733.609070,311.303619 719.605408,311.818512 705.901733,306.211243 
	C695.134277,301.805481 689.821411,293.241943 689.098572,281.764801 
	C688.354187,269.944183 692.941284,260.710632 702.903870,254.294037 
	C716.948059,245.248596 733.049683,242.323349 749.018250,239.062668 
	C752.894104,238.271240 756.813232,237.691422 760.604614,237.033020 
	C761.412720,226.808685 756.059082,220.691895 745.934326,219.922943 
	C735.240051,219.110764 725.024780,221.544876 715.201111,225.329407 
	C700.298645,231.070557 700.447388,231.255386 695.254456,216.146393 
	C694.173889,213.002197 694.889771,210.908035 697.694397,209.546799 
	C715.631104,200.841110 734.506592,196.791794 754.353577,199.671722 
	C766.257935,201.399139 775.211060,207.984756 780.541809,219.517731 
M760.009827,280.635284 
	C760.009827,273.057281 760.009827,265.479279 760.009827,256.680237 
	C748.360840,259.959412 737.151794,262.844971 726.147705,266.370422 
	C722.671509,267.484100 719.229858,269.810638 716.667664,272.450836 
	C710.594360,278.708984 713.269165,287.748199 721.708801,289.867584 
	C735.664734,293.372284 747.801575,288.332275 760.009827,280.635284 
z"/>
<path fill="#7250F3" opacity="1.000000" stroke="none" 
	d="
M307.959961,139.502808 
	C311.108154,138.537384 312.064697,139.791779 312.030273,142.944244 
	C311.901703,154.728714 311.978882,166.515411 311.978882,178.204895 
	C325.093872,164.901596 338.077148,151.731888 351.416290,138.201218 
	C348.881104,135.522781 345.490448,131.940521 341.748962,127.987602 
	C343.085358,126.545105 344.271240,125.265091 346.815430,122.518883 
	C349.931763,126.995796 352.857605,131.199066 355.783447,135.402328 
	C356.593872,135.222534 357.404297,135.042755 358.214722,134.862961 
	C361.251617,130.925293 364.288483,126.987640 367.533966,122.779533 
	C370.017426,124.959503 371.342010,126.122215 373.217743,127.768738 
	C370.479614,130.588120 368.143555,133.360138 365.428497,135.690567 
	C362.454773,138.242966 362.455322,140.015991 365.350769,142.854248 
	C384.251740,161.381744 402.995667,180.069885 421.740112,198.756516 
	C434.000458,210.979034 446.178070,223.284637 458.379974,235.565674 
	C458.954468,236.143860 459.404724,236.845459 460.225891,237.886398 
	C459.005524,239.228516 457.825684,240.526062 456.239502,242.270477 
	C452.408875,238.680695 448.764740,235.265686 444.348145,231.126785 
	C444.217346,233.835907 444.075470,235.416946 444.074432,236.998077 
	C444.057526,263.151031 443.981079,289.304413 444.137207,315.456421 
	C444.161072,319.446655 442.900513,320.533386 439.003967,320.524445 
	C390.862701,320.413696 342.721069,320.458862 294.579529,320.447632 
	C293.273438,320.447357 291.967407,320.266479 290.372528,320.148438 
	C290.372528,318.010437 290.372528,316.097015 290.372528,313.196747 
	C295.242523,313.196747 300.014374,313.196747 305.585693,312.842957 
	C306.589783,311.370087 306.972046,310.251129 306.973083,309.131836 
	C307.006439,273.482086 307.014496,237.832260 306.961090,202.182541 
	C306.959015,200.796143 306.314362,199.410675 305.969147,198.024780 
	C304.675812,198.411194 303.007782,198.410858 302.147552,199.244293 
	C294.197815,206.946548 286.387573,214.792755 277.976318,222.592758 
	C276.945190,224.377670 276.069763,226.165726 276.064331,227.956406 
	C275.977966,256.446045 276.007782,284.936035 275.990723,313.425964 
	C275.989685,315.167480 275.818329,316.908875 275.706116,319.029999 
	C273.810516,318.583344 272.560547,318.288818 271.310577,317.994293 
	C271.221466,293.543091 271.130096,269.091919 271.045319,244.640717 
	C271.030487,240.361465 271.043243,236.082123 271.043243,230.432144 
	C266.401001,234.841858 262.651917,238.403183 258.973938,241.896927 
	C253.822220,238.490341 253.779663,238.070999 257.731750,234.117676 
	C272.435303,219.409439 287.079926,204.641586 301.880005,190.031143 
	C304.445160,187.498871 305.611237,184.941696 305.570465,181.298706 
	C305.419739,167.826218 305.573975,154.350311 305.820679,141.005524 
	C306.027771,155.389496 306.027771,169.643631 306.027771,183.897751 
	C307.001740,171.545258 306.950806,159.188370 307.045105,146.832581 
	C307.063782,144.387131 307.640533,141.945953 307.959961,139.502808 
M437.158081,312.788239 
	C437.352478,311.139496 437.713623,309.491058 437.716370,307.842010 
	C437.760895,281.034454 437.832764,254.226257 437.631531,227.420242 
	C437.615356,225.266098 436.117493,222.660950 434.517944,221.050018 
	C410.002441,196.360382 385.326324,171.830276 360.782440,147.168610 
	C358.215149,144.589020 356.541962,144.420685 353.892853,147.114334 
	C340.936310,160.288712 327.736115,173.223831 314.810822,186.428284 
	C313.274017,187.998260 312.098846,190.693802 312.089874,192.873077 
	C311.930939,231.502182 312.023865,270.132294 311.901886,308.761658 
	C311.891449,312.062164 312.785095,313.752075 315.419159,314.007416 
	C314.994843,314.159393 314.564941,314.298859 314.153992,314.481049 
	C314.108246,314.501282 314.155792,314.893280 314.184723,314.896576 
	C314.679230,314.952820 315.177643,315.000824 315.675171,315.000854 
	C354.965424,315.002533 394.255707,315.011810 433.545807,314.937164 
	C434.661255,314.935028 435.774963,314.036285 437.158081,312.788239 
z"/>
<path fill="#151515" opacity="1.000000" stroke="none" 
	d="
M847.519653,298.559601 
	C831.531677,265.929321 815.719727,233.628998 799.266113,200.017975 
	C808.518066,200.017975 815.952209,199.808273 823.352478,200.214722 
	C824.657349,200.286377 826.216125,202.750275 826.988770,204.419098 
	C835.306580,222.383514 843.486938,240.411499 851.712952,258.418427 
	C853.226685,261.732056 854.776306,265.029297 856.693359,269.162079 
	C860.108826,261.720428 863.229980,254.971420 866.308105,248.202805 
	C872.920837,233.661377 879.622986,219.158737 886.031921,204.527817 
	C887.614868,200.913986 889.641724,199.525314 893.571106,199.831238 
	C898.208679,200.192291 902.897156,199.848724 907.561401,199.931686 
	C912.524902,200.019974 913.168640,201.078186 910.964294,205.635498 
	C899.591431,229.147369 888.181396,252.641312 876.778809,276.138794 
	C872.130188,285.718048 867.632996,295.377319 862.686340,304.800415 
	C861.553650,306.958160 858.895813,309.568237 856.858215,309.639709 
	C854.887390,309.708801 852.510437,307.027069 850.871155,305.082153 
	C849.414368,303.353699 848.724243,300.979004 847.519653,298.559601 
z"/>
<path fill="#6D50E0" opacity="1.000000" stroke="none" 
	d="
M271.252594,318.395477 
	C272.560547,318.288818 273.810516,318.583344 275.706116,319.029999 
	C275.818329,316.908875 275.989685,315.167480 275.990723,313.425964 
	C276.007782,284.936035 275.977966,256.446045 276.064331,227.956406 
	C276.069763,226.165726 276.945190,224.377670 277.684052,222.742615 
	C277.836884,229.051437 277.632141,235.205856 277.621887,241.360626 
	C277.580841,266.019135 277.621796,290.677765 277.544983,315.336121 
	C277.540222,316.869171 277.074310,319.502319 276.319366,319.699921 
	C274.794403,320.099091 272.923096,319.174988 271.252594,318.395477 
z"/>
<path fill="#6B50D9" opacity="1.000000" stroke="none" 
	d="
M305.898804,198.385788 
	C306.314362,199.410675 306.959015,200.796143 306.961090,202.182541 
	C307.014496,237.832260 307.006439,273.482086 306.973083,309.131836 
	C306.972046,310.251129 306.589783,311.370087 306.008270,312.688965 
	C305.680756,312.484589 305.730194,312.080475 305.894012,310.908203 
	C305.998413,273.738129 305.988434,237.336227 305.978455,200.934311 
	C305.928467,200.205139 305.878448,199.475967 305.898804,198.385788 
z"/>
<path fill="#7250F3" opacity="1.000000" stroke="none" 
	d="
M305.816345,201.309204 
	C305.988434,237.336227 305.998413,273.738129 305.989258,310.617523 
	C305.823975,310.452423 305.549622,309.809753 305.549988,309.167236 
	C305.570221,273.339508 305.613403,237.511810 305.816345,201.309204 
z"/>
<path fill="#6C50DB" opacity="1.000000" stroke="none" 
	d="
M307.671570,139.391846 
	C307.640533,141.945953 307.063782,144.387131 307.045105,146.832581 
	C306.950806,159.188370 307.001740,171.545258 306.027771,183.897751 
	C306.027771,169.643631 306.027771,155.389496 306.036804,140.685760 
	C306.491608,139.917709 306.937378,139.599289 307.671570,139.391846 
z"/>
<path fill="#F6F6F6" opacity="1.000000" stroke="none" 
	d="
M973.271851,220.321701 
	C990.158203,220.807144 1003.082520,231.462967 1002.681030,244.378876 
	C983.960815,244.378876 965.233032,244.378876 946.505188,244.378876 
	C946.113464,233.028625 958.155090,221.275040 973.271851,220.321701 
z"/>
<path fill="#FBFBFB" opacity="1.000000" stroke="none" 
	d="
M759.701538,280.924011 
	C747.801575,288.332275 735.664734,293.372284 721.708801,289.867584 
	C713.269165,287.748199 710.594360,278.708984 716.667664,272.450836 
	C719.229858,269.810638 722.671509,267.484100 726.147705,266.370422 
	C737.151794,262.844971 748.360840,259.959412 760.009827,256.680237 
	C760.009827,265.479279 760.009827,273.057281 759.701538,280.924011 
z"/>
<path fill="#FEFDFF" opacity="1.000000" stroke="none" 
	d="
M316.084198,313.960876 
	C312.785095,313.752075 311.891449,312.062164 311.901886,308.761658 
	C312.023865,270.132294 311.930939,231.502182 312.089874,192.873077 
	C312.098846,190.693802 313.274017,187.998260 314.810822,186.428284 
	C327.736115,173.223831 340.936310,160.288712 353.892853,147.114334 
	C356.541962,144.420685 358.215149,144.589020 360.782440,147.168610 
	C385.326324,171.830276 410.002441,196.360382 434.517944,221.050018 
	C436.117493,222.660950 437.615356,225.266098 437.631531,227.420242 
	C437.832764,254.226257 437.760895,281.034454 437.716370,307.842010 
	C437.713623,309.491058 437.352478,311.139496 436.565857,313.228760 
	C418.488342,313.702454 401.003082,313.727417 383.517853,313.770721 
	C361.039948,313.826385 338.562073,313.896820 316.084198,313.960876 
z"/>
<path fill="#6C4FDC" opacity="1.000000" stroke="none" 
	d="
M315.751678,313.984131 
	C338.562073,313.896820 361.039948,313.826385 383.517853,313.770721 
	C401.003082,313.727417 418.488342,313.702454 436.431549,313.612488 
	C435.774963,314.036285 434.661255,314.935028 433.545807,314.937164 
	C394.255707,315.011810 354.965424,315.002533 315.675171,315.000854 
	C315.177643,315.000824 314.679230,314.952820 314.184723,314.896576 
	C314.155792,314.893280 314.108246,314.501282 314.153992,314.481049 
	C314.564941,314.298859 314.994843,314.159393 315.751678,313.984131 
z"/>
</svg>